<?xml version="1.0" standalone="no"?>
<!DOCTYPE svg PUBLIC "-//W3C//DTD SVG 20010904//EN"
 "http://www.w3.org/TR/2001/REC-SVG-20010904/DTD/svg10.dtd">
<svg version="1.0" xmlns="http://www.w3.org/2000/svg"
 width="360.000000pt" height="360.000000pt" viewBox="0 0 360.000000 360.000000"
 preserveAspectRatio="xMidYMid meet">

<g transform="translate(0.000000,360.000000) scale(0.100000,-0.100000)"
fill="#000000" stroke="none">
<path d="M2125 3309 c-54 -12 -115 -40 -115 -52 0 -6 -5 -5 -12 1 -16 13 -100
8 -142 -9 -17 -7 -44 -22 -61 -34 -16 -12 -47 -25 -67 -29 -21 -4 -38 -12 -38
-18 0 -5 -10 -8 -22 -5 -26 6 -59 -4 -61 -18 -2 -10 -5 -11 -41 -13 -12 -1
-16 -7 -12 -17 3 -8 2 -14 -2 -14 -30 5 -73 -4 -86 -17 -11 -10 -16 -11 -16
-3 0 6 -9 1 -19 -13 -17 -20 -78 -49 -116 -53 -5 -1 -21 -7 -35 -13 -14 -6
-68 -24 -121 -40 -128 -40 -227 -88 -353 -172 -125 -84 -208 -164 -298 -291
-117 -163 -204 -357 -245 -549 -27 -128 -24 -394 6 -512 77 -302 245 -560 495
-760 174 -140 321 -216 522 -271 141 -39 228 -51 389 -51 284 1 569 78 820
223 256 148 484 408 596 682 23 56 40 81 65 99 19 12 37 33 40 46 3 13 15 26
25 29 11 4 17 10 14 14 -2 5 6 9 20 9 31 0 77 38 99 83 20 40 16 92 -10 155
-8 18 -14 45 -14 59 0 14 -4 25 -8 25 -5 0 -8 13 -7 30 1 21 -4 31 -17 36 -10
3 -18 11 -18 19 0 7 -6 15 -13 18 -7 3 -18 21 -24 41 -10 33 -9 37 15 56 47
35 52 40 52 60 0 13 5 18 15 14 9 -4 15 0 15 8 0 8 9 23 20 33 24 22 25 53 4
148 -37 166 -39 171 -90 186 -34 10 -48 11 -57 2 -14 -14 -30 -15 -22 -1 6 9
0 11 -22 9 -5 0 -7 -7 -5 -14 2 -10 -3 -13 -13 -9 -8 3 -15 13 -15 21 0 11
-13 13 -67 9 -38 -2 -74 -5 -81 -5 -7 -1 -10 -6 -6 -12 4 -7 1 -10 -7 -7 -8 3
-22 1 -32 -4 -34 -18 -50 16 -36 79 1 4 -3 21 -9 36 -7 16 -12 33 -12 38 0 5
-6 9 -12 9 -9 0 -8 4 2 10 15 10 11 16 -25 35 -6 3 -5 7 3 11 10 5 10 9 1 21
-10 12 -10 16 2 24 27 17 -11 27 -85 22 l-71 -5 -18 78 c-11 44 -24 85 -29 92
-13 15 -50 16 -65 1 -7 -7 -17 -7 -29 -1 -11 6 -27 13 -36 16 -22 7 -24 44 -3
52 8 4 15 14 15 23 0 14 2 14 10 1 8 -12 10 -11 10 8 0 12 -4 22 -8 22 -4 0
-9 21 -10 46 -2 45 -5 60 -33 149 -13 44 -35 66 -57 57 -11 -4 -13 0 -7 16 6
21 -6 28 -37 23 -4 0 -5 5 -2 12 6 16 10 15 -131 21 -60 2 -128 0 -150 -5z
m-675 -303 c0 -2 -24 -19 -52 -38 -115 -77 -278 -262 -344 -390 -13 -27 -30
-48 -38 -48 -7 0 -40 -14 -73 -30 -192 -96 -289 -355 -215 -575 19 -56 20 -63
5 -119 -10 -41 -14 -91 -11 -156 6 -164 66 -247 188 -264 41 -6 197 15 220 29
5 3 18 -12 29 -34 30 -57 114 -158 179 -214 115 -99 294 -156 408 -130 30 7
57 8 72 2 57 -22 282 0 412 40 79 24 308 44 400 35 78 -7 114 6 155 60 28 37
75 165 75 206 0 22 6 29 38 38 47 14 145 79 211 138 28 25 51 42 51 38 0 -22
-46 -168 -82 -257 -108 -275 -294 -524 -488 -654 -181 -121 -411 -219 -618
-264 -126 -26 -390 -37 -499 -19 -207 33 -415 115 -585 232 -114 78 -314 275
-386 380 -99 145 -157 285 -198 478 -25 117 -25 345 -1 458 58 265 180 496
357 673 147 148 342 266 546 333 96 32 244 63 244 52z m570 -70 c20 -18 43
-35 51 -38 11 -4 12 -9 1 -32 -6 -15 -12 -42 -12 -61 0 -38 -5 -40 -62 -25
-30 9 -44 8 -68 -5 -37 -19 -50 -13 -50 23 0 15 -7 36 -15 46 -22 29 -18 45
13 59 15 6 38 24 50 40 31 35 47 34 92 -7z m-832 -437 c-85 -44 -155 -164
-165 -286 -8 -90 2 -128 49 -179 59 -64 122 -81 224 -60 113 23 215 91 271
182 11 18 12 18 12 -3 1 -12 -4 -57 -10 -100 -11 -76 -13 -79 -68 -134 -111
-110 -346 -190 -496 -168 -116 16 -186 67 -234 168 -23 51 -26 67 -26 171 1
103 4 122 29 183 63 150 175 225 366 246 80 9 93 3 48 -20z m160 -35 c49 -25
112 -92 112 -121 0 -20 -10 -17 -131 42 -63 30 -120 55 -126 55 -14 0 -18 32
-6 43 16 17 101 6 151 -19z m168 -9 c19 -8 46 -23 60 -34 l24 -19 -26 -17
c-25 -16 -26 -16 -42 7 -9 12 -28 35 -43 51 -31 31 -24 34 27 12z m114 -86 c0
-5 -6 -9 -14 -9 -8 0 -18 -5 -22 -12 -5 -8 2 -9 24 -5 36 7 46 -4 57 -66 l7
-37 -43 0 -44 0 -18 56 c-17 55 -17 56 5 74 22 17 48 17 48 -1z m-514 -45
c-55 -156 -3 -269 142 -309 l47 -13 -41 -1 c-49 -1 -139 42 -167 80 -41 57
-39 158 5 245 26 53 33 52 14 -2z m417 -85 c12 -20 1 -69 -16 -69 -30 0 -52
62 -30 84 11 10 35 3 46 -15z m1530 -56 c11 -13 19 -24 16 -25 -2 -2 -13 -8
-24 -14 -12 -7 -21 -24 -23 -43 -3 -32 -4 -32 -23 -15 -13 12 -33 17 -60 15
-38 -2 -40 -1 -33 21 8 23 9 61 3 88 -3 11 3 14 19 12 12 -2 34 6 49 18 l27
21 14 -28 c8 -15 24 -38 35 -50z m-1368 -87 c-7 -61 -31 -136 -45 -136 -4 0
-13 7 -20 15 -7 8 -19 15 -27 15 -11 0 -14 7 -9 23 3 12 6 63 6 114 l0 92 43
3 c41 3 42 2 50 -32 5 -19 6 -62 2 -94z m412 104 c28 0 34 -3 29 -16 -3 -9 -6
-37 -7 -62 0 -26 -3 -40 -6 -32 -9 24 -43 53 -44 38 0 -11 -2 -11 -6 0 -4 9
-8 10 -18 2 -11 -9 -12 -7 -8 9 3 12 10 18 16 14 6 -3 7 -1 3 6 -6 9 -11 9
-21 1 -8 -7 -19 -9 -25 -5 -5 3 -10 1 -10 -5 0 -6 -4 -8 -10 -5 -5 3 -10 2
-10 -4 0 -6 9 -15 20 -21 11 -6 20 -15 20 -20 0 -6 -14 2 -30 17 l-31 27 25
13 c13 7 29 27 35 44 10 28 12 29 27 15 8 -9 31 -16 51 -16z m401 -90 c20 -11
58 -22 84 -25 l47 -6 -20 -34 -20 -34 25 -38 c14 -21 26 -41 26 -45 0 -5 -20
-8 -45 -8 -35 0 -51 -6 -78 -30 -19 -16 -37 -30 -40 -30 -2 0 -10 19 -16 43
-10 33 -22 49 -52 67 -21 14 -39 28 -39 31 0 4 13 12 30 19 30 12 33 18 45 78
4 17 9 32 11 32 3 0 22 -9 42 -20z m-928 -174 c-15 -67 -95 -129 -180 -139
l-44 -6 51 28 c79 43 110 68 144 116 18 25 34 44 35 42 2 -1 -1 -20 -6 -41z
m37 -19 c-4 -28 -17 -51 -44 -79 -54 -56 -81 -68 -181 -77 -48 -5 -94 -12
-103 -16 -10 -3 -20 -2 -24 4 -9 16 39 31 101 31 63 0 110 17 165 61 43 34 69
75 69 109 0 13 4 19 11 14 7 -4 9 -22 6 -47z m40 6 c2 -6 -3 -13 -12 -16 -10
-5 -15 0 -15 14 0 21 21 22 27 2z m93 -58 c27 -20 73 -63 104 -96 44 -47 56
-67 56 -92 0 -35 -28 -139 -55 -202 -19 -46 -82 -115 -105 -115 -50 0 -289
164 -311 214 -9 18 -7 32 9 62 25 49 95 144 156 212 58 63 80 66 146 17z
m-922 -143 c-33 -38 -68 -104 -69 -129 0 -13 -3 -11 -11 7 -10 25 -5 184 7
225 6 18 11 16 54 -25 l47 -45 -28 -33z m677 29 c-3 -6 -18 -11 -33 -10 l-27
1 30 13 c32 14 41 13 30 -4z m-577 -34 c40 -45 53 -133 30 -208 -12 -41 -57
-99 -76 -99 -15 0 -15 17 -1 26 16 9 59 105 59 129 -1 11 -9 -3 -18 -31 -10
-28 -30 -66 -45 -83 -33 -40 -34 -36 -2 28 14 28 28 74 30 103 l4 53 -9 -49
c-12 -67 -51 -141 -75 -141 -10 0 -27 13 -39 28 -40 54 -16 160 53 239 35 40
56 41 89 5z m350 -3 c54 -65 73 -195 38 -264 -20 -42 -14 -51 11 -14 14 21 18
47 18 109 0 67 -4 89 -27 135 -15 30 -26 55 -25 56 1 1 25 5 52 8 37 4 42 3
20 -3 -24 -7 -15 -9 43 -10 39 0 72 -2 72 -3 0 -2 -14 -30 -30 -62 -17 -32
-30 -68 -30 -79 0 -10 18 -37 40 -59 22 -22 40 -48 40 -57 0 -11 3 -12 8 -4 5
8 26 -2 66 -33 33 -24 63 -44 68 -44 22 0 -6 -75 -45 -117 -11 -13 -15 -23 -9
-23 9 0 64 83 75 113 1 4 19 1 39 -8 21 -8 42 -15 48 -15 17 0 90 72 111 109
39 72 7 -13 -45 -117 -70 -142 -140 -233 -194 -252 -38 -13 -47 -13 -98 5
-120 41 -254 159 -348 308 -17 28 -17 29 3 34 12 3 19 9 16 13 -3 4 3 10 13
12 45 12 68 139 36 203 -12 26 -13 26 -8 5 15 -68 15 -107 0 -140 -9 -19 -13
-26 -10 -15 13 40 17 108 7 102 -6 -4 -13 -26 -15 -51 -3 -24 -15 -58 -27 -75
-12 -17 -19 -31 -14 -32 27 -3 -161 -38 -205 -39 l-53 0 19 28 c43 62 55 163
28 239 l-14 40 81 2 c45 0 105 7 132 15 73 21 81 20 113 -20z m1090 20 c15 -9
36 -27 46 -41 17 -23 18 -31 7 -71 -12 -47 -38 -86 -72 -110 -50 -35 -101 36
-115 156 -4 35 -10 59 -14 53 -12 -21 2 -116 25 -169 26 -56 57 -77 102 -66
33 9 80 74 88 124 4 22 11 38 16 35 11 -8 46 -127 54 -187 l6 -47 -43 19 c-77
33 -203 53 -292 46 -120 -10 -114 -25 7 -19 118 6 161 -1 284 -49 61 -24 85
-39 93 -58 16 -34 14 -181 -2 -196 -7 -7 -69 -17 -138 -24 -69 -6 -154 -20
-190 -30 -36 -10 -90 -24 -120 -30 -60 -13 -300 -26 -300 -17 0 3 26 31 59 62
139 132 198 344 145 522 -5 18 1 25 33 41 120 61 270 87 321 56z m-394 -123
c19 -119 -48 -328 -146 -453 -16 -21 -25 -38 -20 -38 6 0 26 22 46 49 85 116
143 296 133 416 -7 83 7 69 22 -23 17 -109 -15 -237 -88 -348 -62 -96 -134
-154 -189 -154 l-34 0 47 53 c54 61 148 246 170 333 21 85 17 114 -4 34 -26
-93 -64 -182 -112 -258 -43 -70 -125 -162 -144 -162 -6 0 14 26 45 58 100 104
179 267 205 422 22 130 23 132 44 120 11 -5 21 -26 25 -49z m866 -157 c13 -34
3 -94 -31 -185 -38 -100 -71 -131 -144 -137 -30 -2 -55 -3 -55 -1 0 2 7 22 15
44 19 54 19 135 -1 163 -8 12 -14 26 -12 30 2 4 29 31 60 61 81 76 145 85 168
25z m-233 -125 c7 -13 13 -39 13 -57 0 -43 -20 -122 -31 -122 -5 0 -4 12 1 26
12 32 13 154 1 154 -5 0 -12 7 -15 16 -10 25 17 11 31 -17z"/>
<path d="M815 2066 c-13 -13 -27 -35 -30 -49 -16 -61 47 -173 119 -213 75 -42
194 -38 222 7 24 39 -17 148 -78 206 -74 71 -187 95 -233 49z m150 -15 c95
-43 181 -198 133 -239 -13 -10 -70 -17 -124 -14 -50 3 -119 56 -148 114 -33
66 -33 102 -1 133 30 31 82 33 140 6z"/>
<path d="M862 1954 c-28 -20 -28 -39 2 -79 34 -44 98 -72 131 -57 55 25 19
112 -58 141 -38 15 -49 14 -75 -5z m121 -44 c17 -19 27 -40 25 -53 -7 -48
-104 -22 -144 38 -41 63 64 76 119 15z"/>
<path d="M1638 2263 c6 -2 18 -2 25 0 6 3 1 5 -13 5 -14 0 -19 -2 -12 -5z"/>
<path d="M1617 1798 c-35 -46 -90 -138 -86 -142 2 -2 30 36 61 85 58 90 69
115 25 57z"/>
<path d="M1703 1815 c-3 -9 -4 -17 -2 -19 41 -37 142 -105 149 -101 25 15 -10
61 -87 113 -37 26 -52 27 -60 7z m52 -17 c5 4 5 1 1 -6 -6 -10 -11 -10 -22 -1
-8 6 -14 14 -14 16 0 3 6 0 13 -6 8 -6 18 -7 22 -3z m75 -64 c23 -26 22 -25
-17 5 -24 18 -43 35 -43 37 0 10 36 -16 60 -42z"/>
<path d="M1645 1739 c-30 -37 -79 -129 -68 -129 5 0 24 30 43 66 19 36 39 68
43 71 11 7 77 -28 77 -41 0 -5 -19 -42 -42 -81 l-42 -73 -33 25 c-19 14 -31
19 -28 12 6 -15 69 -63 119 -91 34 -19 47 -22 44 -10 -1 4 5 18 14 32 9 14 28
50 42 81 23 53 24 58 8 72 -28 24 -135 97 -143 97 -4 0 -19 -14 -34 -31z m149
-62 l28 -23 -35 -77 c-20 -42 -39 -77 -44 -77 -4 0 -23 9 -41 20 l-33 20 43
80 c24 44 45 80 48 80 3 0 18 -10 34 -23z"/>
<path d="M1722 1606 c-24 -47 -26 -56 -14 -56 8 0 52 74 52 89 0 24 -18 9 -38
-33z"/>
<path d="M1750 1589 c-12 -22 -19 -46 -17 -52 2 -7 12 5 22 26 11 20 22 37 27
37 4 0 8 7 8 15 0 28 -19 15 -40 -26z"/>
<path d="M1690 1706 c0 -8 4 -17 9 -20 11 -7 33 18 24 27 -12 12 -33 7 -33 -7z"/>
<path d="M1576 1533 c28 -27 79 -63 115 -80 106 -51 121 -47 21 6 -52 27 -106
60 -120 73 -54 48 -66 49 -16 1z"/>
<path d="M800 1618 c-22 -47 -25 -73 -10 -63 6 3 10 15 10 26 0 11 7 33 15 49
9 17 13 30 10 30 -3 0 -15 -19 -25 -42z"/>
<path d="M1137 1686 c21 -28 24 -28 16 2 -3 12 -12 22 -20 22 -11 0 -10 -5 4
-24z"/>
<path d="M1167 1590 c4 -46 1 -76 -10 -103 -18 -41 -7 -52 11 -12 13 29 15
130 3 160 -5 12 -7 -7 -4 -45z"/>
<path d="M1131 1510 c-7 -23 -10 -44 -8 -47 7 -6 29 65 25 79 -2 6 -10 -8 -17
-32z"/>
<path d="M1435 1424 c-9 -14 -15 -27 -13 -30 2 -2 12 10 22 26 21 37 15 40 -9
4z"/>
<path d="M1490 1399 c-7 -11 -10 -23 -7 -25 2 -2 9 7 15 21 14 30 7 33 -8 4z"/>
<path d="M1231 1397 c-3 -32 92 -147 141 -173 15 -8 28 -12 28 -9 0 3 -28 34
-63 68 -34 34 -72 76 -84 92 -12 17 -22 26 -22 22z"/>
<path d="M1556 1385 c-9 -26 -7 -32 5 -12 6 10 9 21 6 23 -2 3 -7 -2 -11 -11z"/>
<path d="M1586 1383 c-6 -14 -5 -15 5 -6 7 7 10 15 7 18 -3 3 -9 -2 -12 -12z"/>
<path d="M1661 1303 c-10 -26 -10 -27 4 -9 8 11 15 23 15 28 0 15 -7 8 -19
-19z"/>
<path d="M1672 1256 c-24 -35 -27 -45 -12 -31 22 19 55 74 48 79 -2 2 -18 -20
-36 -48z"/>
<path d="M1474 1166 c11 -9 29 -16 40 -16 28 0 8 17 -29 25 -29 6 -29 6 -11
-9z"/>
<path d="M2251 1702 c-1 -39 33 -140 54 -161 13 -13 18 -12 46 14 35 34 72
101 65 118 -2 7 -5 5 -5 -5 -1 -19 -77 -118 -90 -118 -10 0 -35 60 -56 135
-12 45 -13 47 -14 17z"/>
<path d="M2060 1649 c-26 -15 -29 -18 -10 -13 35 9 78 33 60 33 -8 0 -31 -9
-50 -20z"/>
<path d="M2236 1414 c-12 -31 -6 -127 10 -160 21 -44 42 -41 71 11 25 45 44
153 24 141 -6 -4 -11 -22 -12 -39 0 -40 -30 -119 -46 -124 -21 -7 -37 41 -37
114 -1 40 -2 73 -2 73 -1 0 -5 -7 -8 -16z"/>
<path d="M2186 1384 c-8 -43 -1 -105 17 -139 13 -28 48 -65 60 -65 6 0 1 10
-10 23 -36 39 -47 70 -53 147 -5 71 -6 73 -14 34z"/>
<path d="M2385 1357 c-1 -71 -29 -132 -73 -160 -18 -11 -22 -17 -11 -17 28 0
67 39 85 86 19 51 24 128 9 143 -7 6 -10 -11 -10 -52z"/>
<path d="M2135 1129 c-38 -10 -105 -19 -147 -19 -45 0 -78 -4 -78 -10 0 -24
208 -7 281 23 54 22 19 25 -56 6z"/>
<path d="M2255 1140 c3 -5 13 -10 21 -10 8 0 14 5 14 10 0 6 -9 10 -21 10 -11
0 -17 -4 -14 -10z"/>
<path d="M2705 1430 c-4 -6 -3 -10 2 -9 22 4 43 -2 57 -17 14 -13 16 -13 16
-1 0 8 -14 20 -31 26 -39 13 -36 13 -44 1z"/>
<path d="M2790 1403 c0 -16 -12 -48 -25 -72 -30 -52 -27 -65 5 -21 21 29 41
120 26 120 -3 0 -6 -12 -6 -27z"/>
<path d="M2674 1380 c36 -11 46 -25 46 -69 0 -27 -9 -42 -41 -73 -53 -51 -45
-58 13 -13 45 35 45 37 40 83 -5 56 -26 82 -61 81 -26 -1 -26 -1 3 -9z"/>
</g>
</svg>
