<?xml version="1.0" standalone="no"?>
<!DOCTYPE svg PUBLIC "-//W3C//DTD SVG 20010904//EN"
 "http://www.w3.org/TR/2001/REC-SVG-20010904/DTD/svg10.dtd">
<svg version="1.0" xmlns="http://www.w3.org/2000/svg"
 width="626.000000pt" height="626.000000pt" viewBox="0 0 626.000000 626.000000"
 preserveAspectRatio="xMidYMid meet">

<g transform="translate(0.000000,626.000000) scale(0.100000,-0.100000)"
fill="#000000" stroke="none">
<path d="M2830 6245 c-547 -60 -1014 -228 -1447 -521 -315 -213 -588 -479
-803 -783 -88 -124 -96 -136 -189 -302 -377 -668 -487 -1498 -300 -2249 73
-296 158 -513 296 -765 360 -651 938 -1154 1633 -1421 429 -165 957 -236 1402
-189 641 68 1191 293 1680 686 132 106 351 325 457 457 667 829 870 1903 552
2922 -116 372 -315 736 -575 1050 -70 84 -259 279 -346 355 -311 274 -714 502
-1110 627 -401 126 -864 176 -1250 133z m520 -495 c409 -37 792 -161 1143
-372 325 -196 676 -545 876 -871 516 -839 519 -1894 9 -2740 -143 -237 -429
-557 -633 -709 -49 -37 -108 -80 -130 -97 -100 -74 -319 -194 -470 -256 -74
-31 -221 -85 -231 -85 -1 0 -4 141 -7 312 -4 328 -8 353 -56 463 -32 72 -68
123 -128 180 -29 28 -53 53 -53 57 0 3 35 8 78 12 156 14 398 76 557 142 234
97 417 247 547 450 123 192 194 469 205 799 9 269 -21 425 -117 621 -53 106
-79 147 -144 220 l-39 44 28 113 c49 198 35 425 -39 627 l-24 65 -93 -1 c-77
0 -111 -6 -189 -31 -154 -51 -307 -127 -494 -245 l-49 -31 -91 21 c-182 42
-315 62 -481 70 -302 16 -577 -7 -847 -69 l-87 -20 -43 26 c-24 14 -64 39 -90
55 -26 16 -73 43 -105 61 -32 17 -62 35 -68 39 -21 14 -183 79 -250 100 -39
11 -113 24 -166 27 -114 7 -105 15 -150 -141 -62 -217 -63 -412 -2 -603 l17
-52 -27 -33 c-105 -129 -168 -238 -216 -374 -45 -130 -61 -240 -61 -433 0
-326 68 -624 188 -826 76 -128 206 -270 318 -348 195 -135 529 -248 810 -273
41 -4 74 -8 74 -10 0 -3 -29 -32 -64 -67 -72 -71 -125 -166 -152 -273 -15 -56
-19 -126 -22 -376 -2 -170 -5 -308 -6 -308 -1 0 -40 13 -87 29 -391 134 -715
337 -1014 636 -338 338 -564 727 -683 1175 -157 589 -111 1180 136 1748 122
282 304 543 547 787 192 191 365 323 582 444 448 250 985 366 1493 321z"/>
</g>
</svg>
