<?xml version="1.0" standalone="no"?>
<!DOCTYPE svg PUBLIC "-//W3C//DTD SVG 20010904//EN"
 "http://www.w3.org/TR/2001/REC-SVG-20010904/DTD/svg10.dtd">
<svg version="1.0" xmlns="http://www.w3.org/2000/svg"
 width="512.000000pt" height="512.000000pt" viewBox="0 0 512.000000 512.000000"
 preserveAspectRatio="xMidYMid meet">

<g transform="translate(0.000000,512.000000) scale(0.100000,-0.100000)"
fill="#000000" stroke="none">
<path d="M2385 4900 c-444 -33 -869 -193 -1233 -464 -137 -102 -366 -331 -468
-468 -516 -692 -614 -1592 -259 -2379 114 -254 266 -472 479 -685 454 -453
1015 -686 1656 -686 641 0 1202 233 1656 686 371 371 587 800 665 1321 42 280
24 633 -47 910 -240 941 -1038 1642 -1994 1754 -130 15 -333 20 -455 11z m410
-220 c236 -27 485 -99 699 -204 225 -110 389 -228 572 -410 182 -183 300 -348
410 -571 144 -295 214 -602 214 -937 0 -573 -218 -1098 -624 -1504 -406 -406
-931 -624 -1504 -624 -735 0 -1391 359 -1802 985 -161 247 -285 598 -320 910
-22 200 -10 457 31 665 108 541 448 1042 918 1352 264 175 609 301 921 337
107 12 379 13 485 1z"/>
<path d="M1670 3825 c-57 -18 -124 -74 -152 -129 -28 -54 -30 -154 -3 -210 24
-49 71 -97 121 -122 30 -15 60 -19 134 -19 84 0 101 3 148 28 196 103 163 388
-54 453 -59 17 -135 17 -194 -1z"/>
<path d="M3121 3155 c-124 -27 -229 -91 -293 -179 l-28 -39 0 111 0 112 -255
0 -255 0 0 -725 0 -725 255 0 254 0 3 443 3 442 30 54 c100 181 359 185 448 6
32 -66 37 -134 37 -540 l0 -405 260 0 260 0 0 441 c0 274 -4 467 -11 512 -32
208 -137 366 -294 443 -124 61 -276 79 -414 49z"/>
<path d="M1557 3153 c-4 -3 -7 -330 -7 -725 l0 -718 230 0 230 0 0 725 0 725
-223 0 c-123 0 -227 -3 -230 -7z"/>
</g>
</svg>
