<?xml version="1.0" standalone="no"?>
<!DOCTYPE svg PUBLIC "-//W3C//DTD SVG 20010904//EN"
 "http://www.w3.org/TR/2001/REC-SVG-20010904/DTD/svg10.dtd">
<svg version="1.0" xmlns="http://www.w3.org/2000/svg"
 width="818.000000pt" height="818.000000pt" viewBox="0 0 818.000000 818.000000"
 preserveAspectRatio="xMidYMid meet">

<g transform="translate(0.000000,818.000000) scale(0.100000,-0.100000)"
fill="#000000" stroke="none">
<path d="M3237 6249 c-181 -9 -296 -24 -402 -50 -489 -124 -804 -478 -880
-989 -25 -168 -35 -471 -35 -1120 0 -649 10 -952 35 -1120 73 -492 371 -841
830 -975 212 -62 443 -75 1305 -75 1008 0 1203 18 1473 135 236 103 459 326
562 562 117 270 135 465 135 1473 0 645 -10 949 -35 1120 -73 491 -371 841
-830 975 -124 36 -247 53 -475 65 -222 11 -1458 11 -1683 -1z m1808 -399 c417
-41 654 -215 761 -560 52 -165 69 -559 61 -1415 -6 -630 -14 -791 -47 -932
-73 -310 -268 -505 -580 -582 -140 -34 -296 -42 -935 -48 -649 -6 -1123 6
-1280 32 -151 24 -273 70 -369 139 -190 136 -301 352 -322 625 -3 47 -8 97
-10 111 -3 14 -8 304 -11 645 -6 665 6 1150 32 1295 69 391 291 612 682 676
54 9 188 20 298 24 274 11 1583 4 1720 -10z"/>
<path d="M5180 5501 c-49 -15 -87 -40 -124 -81 -51 -56 -66 -97 -66 -172 1
-108 58 -197 152 -238 76 -33 177 -25 245 18 144 93 164 282 43 403 -66 66
-168 95 -250 70z"/>
<path d="M4025 5204 c-280 -24 -509 -124 -701 -306 -225 -214 -346 -496 -346
-808 -1 -306 118 -589 334 -796 219 -211 481 -317 778 -317 308 1 589 120 800
339 207 216 312 476 313 774 0 486 -316 918 -778 1063 -119 37 -296 59 -400
51z m220 -409 c176 -37 351 -160 450 -315 79 -124 115 -247 115 -394 -1 -274
-155 -519 -405 -642 -104 -52 -197 -74 -311 -74 -208 0 -378 73 -527 229 -230
240 -263 601 -82 881 111 171 273 278 490 324 48 9 206 4 270 -9z"/>
</g>
</svg>
